HIERARCHY
ROOT Pelvis
{
	OFFSET 0.000000 0.941512 0.000000
	CHANNELS 6 Xposition Yposition Zposition Zrotation Yrotation Xrotation 
	JOINT Pelvis_L_Hip
	{
		OFFSET 0.000000 0.000000 0.000000
		CHANNELS 3 Zrotation Yrotation Xrotation
		JOINT L_Hip
		{
			OFFSET 0.062321 -0.080322 -0.016990
			CHANNELS 3 Zrotation Yrotation Xrotation
			JOINT L_Knee
			{
				OFFSET 0.093051 -0.381305 -0.029784
				CHANNELS 3 Zrotation Yrotation Xrotation
				JOINT L_Ankle
				{
					OFFSET -0.010371 -0.431000 -0.033614
					CHANNELS 3 Zrotation Yrotation Xrotation
					End Site #name: L_Foot
					{
						OFFSET 0.069299 -0.038670 0.119418
					}
				}
			}
		}
	}
	JOINT Pelvis_R_Hip
	{
		OFFSET 0.000000 0.000000 0.000000
		CHANNELS 3 Zrotation Yrotation Xrotation
		JOINT R_Hip
		{
			OFFSET -0.055334 -0.094904 -0.002373
			CHANNELS 3 Zrotation Yrotation Xrotation
			JOINT R_Knee
			{
				OFFSET -0.064207 -0.384370 -0.019592
				CHANNELS 3 Zrotation Yrotation Xrotation
				JOINT R_Ankle
				{
					OFFSET 0.025418 -0.419734 -0.065953
					CHANNELS 3 Zrotation Yrotation Xrotation
					End Site #name: R_Foot
					{
						OFFSET -0.057233 -0.039888 0.132134
					}
				}
			}
		}
	}
	JOINT Pelvis_Spine1
	{
		OFFSET 0.000000 0.000000 0.000000
		CHANNELS 3 Zrotation Yrotation Xrotation
		JOINT Spine1
		{
			OFFSET -0.005562 0.124093 -0.043360
			CHANNELS 3 Zrotation Yrotation Xrotation
			JOINT Spine2
			{
				OFFSET 0.012244 0.139499 0.029894
				CHANNELS 3 Zrotation Yrotation Xrotation
				JOINT Spine3
				{
					OFFSET -0.002556 0.056561 0.009225
					CHANNELS 3 Zrotation Yrotation Xrotation
					JOINT Spine3_Neck
					{
						OFFSET 0.000000 0.000000 0.000000
						CHANNELS 3 Zrotation Yrotation Xrotation
						JOINT Neck
						{
							OFFSET -0.005205 0.217920 -0.024551
							CHANNELS 3 Zrotation Yrotation Xrotation
							End Site #name: Head
							{
								OFFSET 0.002365 0.091850 0.046637
							}
						}
					}
					JOINT Spine3_L_Collar
					{
						OFFSET 0.000000 0.000000 0.000000
						CHANNELS 3 Zrotation Yrotation Xrotation
						JOINT L_Collar
						{
							OFFSET 0.072225 0.116603 -0.009480
							CHANNELS 3 Zrotation Yrotation Xrotation
							JOINT L_Shoulder
							{
								OFFSET 0.115937 -0.058643 -0.021018
								CHANNELS 3 Zrotation Yrotation Xrotation
								JOINT L_Elbow
								{
									OFFSET 0.021994 -0.254722 -0.024492
									CHANNELS 3 Zrotation Yrotation Xrotation
									End Site #name: L_Wrist
									{
										OFFSET 0.048810 -0.240214 0.103329
									}
								}
							}
						}
					}
					JOINT Spine3_R_Collar
					{
						OFFSET 0.000000 0.000000 0.000000
						CHANNELS 3 Zrotation Yrotation Xrotation
						JOINT R_Collar
						{
							OFFSET -0.073372 0.120704 -0.024611
							CHANNELS 3 Zrotation Yrotation Xrotation
							JOINT R_Shoulder
							{
								OFFSET -0.108089 -0.054969 -0.020504
								CHANNELS 3 Zrotation Yrotation Xrotation
								JOINT R_Elbow
								{
									OFFSET -0.033684 -0.260739 0.009889
									CHANNELS 3 Zrotation Yrotation Xrotation
									End Site #name: R_Wrist
									{
										OFFSET -0.067980 -0.232763 0.118463
									}
								}
							}
						}
					}
				}
			}
		}
	}
}
MOTION
Frames: 17
Frame Time: 0.041667
0.000000 0.947731 0.000000 -2.790542 -1.625867 -0.719506 0.000000 0.000000 0.000000 -1.421356 0.546136 1.696610 2.511764 -0.191395 -0.177957 -1.991847 -6.679221 -0.158918 0.000000 0.000000 0.000000 4.934153 -0.984245 3.449292 -4.371936 0.247705 -4.387012 5.310275 11.874533 3.490261 0.000000 0.000000 0.000000 5.683021 -1.023567 -1.416523 -2.224256 0.230878 -2.031238 1.796866 1.262569 7.994226 0.000000 0.000000 0.000000 -1.533904 0.779083 3.103593 0.000000 0.000000 0.000000 16.117315 -2.848970 1.239503 -19.694132 2.161656 -0.091541 -0.764302 -1.666648 -6.223333 0.000000 0.000000 0.000000 -24.278958 6.708880 -0.195538 22.751687 -1.428695 6.019353 4.145857 5.780724 -10.236540 
0.000508 0.947765 -0.000500 -2.809429 -1.560761 -0.831983 0.000000 0.000000 0.000000 -1.393080 0.543450 1.697314 2.456971 -0.193549 -0.035209 -1.960156 -6.720580 -0.230818 0.000000 0.000000 0.000000 4.957877 -0.954271 3.302960 -4.405586 0.297753 -3.923415 5.167641 11.783749 3.279027 0.000000 0.000000 0.000000 5.700943 -1.039733 -1.317634 -2.302115 0.233612 -2.164284 1.831231 1.261059 8.192701 0.000000 0.000000 0.000000 -1.551963 0.790856 2.905848 0.000000 0.000000 0.000000 16.272895 -3.048789 1.134972 -19.729058 2.102836 -0.349361 -0.830128 -1.651408 -6.007505 0.000000 0.000000 0.000000 -24.443499 6.795896 -0.252319 22.937661 -1.394791 5.881471 4.118482 5.806177 -10.353153 
0.000980 0.947901 -0.000624 -2.826189 -1.484760 -0.988758 0.000000 0.000000 0.000000 -1.387005 0.549544 1.724451 2.434964 -0.201526 0.184930 -1.895927 -6.767317 -0.358361 0.000000 0.000000 0.000000 4.981083 -0.938321 3.225827 -4.444244 0.344693 -3.504456 5.046976 11.719008 3.094151 0.000000 0.000000 0.000000 5.648802 -1.037696 -1.243993 -2.292965 0.235035 -2.122154 1.819923 1.226256 8.225651 0.000000 0.000000 0.000000 -1.484069 0.751574 3.044705 0.000000 0.000000 0.000000 16.286210 -3.248636 1.001703 -19.655253 2.066827 -0.455816 -0.875041 -1.607185 -5.704221 0.000000 0.000000 0.000000 -24.442479 6.860603 -0.312557 22.939865 -1.382649 5.842361 4.145405 5.840057 -10.398812 
0.001337 0.948058 -0.000163 -2.873220 -1.493005 -1.222653 0.000000 0.000000 0.000000 -1.355916 0.586315 1.880143 2.418652 -0.211582 0.438682 -1.809696 -6.780206 -0.504982 0.000000 0.000000 0.000000 5.009445 -0.944872 3.255619 -4.434637 0.388386 -3.053589 4.941946 11.744702 2.883807 0.000000 0.000000 0.000000 5.601291 -1.045219 -1.103578 -2.266164 0.235017 -2.060658 1.853684 1.233594 8.245896 0.000000 0.000000 0.000000 -1.461851 0.737310 3.235196 0.000000 0.000000 0.000000 16.272957 -3.384262 0.906395 -19.647638 2.058644 -0.485070 -0.893437 -1.548267 -5.395606 0.000000 0.000000 0.000000 -24.453077 6.952201 -0.389890 22.937411 -1.397736 5.883728 4.125360 5.807695 -10.343494 
0.001804 0.948282 0.000725 -2.868787 -1.632375 -1.406564 0.000000 0.000000 0.000000 -1.406120 0.621094 1.997738 2.393770 -0.224622 0.765845 -1.661957 -6.693723 -0.703072 0.000000 0.000000 0.000000 4.978321 -0.943121 3.267981 -4.456295 0.433814 -2.621010 4.852679 11.854856 2.650709 0.000000 0.000000 0.000000 5.552472 -1.047727 -1.001288 -2.269503 0.237481 -2.030117 1.853251 1.265263 8.270146 0.000000 0.000000 0.000000 -1.485526 0.749688 3.432194 0.000000 0.000000 0.000000 16.282218 -3.368489 0.912084 -19.678658 2.080448 -0.423237 -0.972818 -1.549666 -5.226076 0.000000 0.000000 0.000000 -24.475591 7.037083 -0.445296 23.029553 -1.420205 5.940088 4.025876 5.686119 -10.193069 
0.002447 0.948406 0.001953 -2.871957 -1.851883 -1.498139 0.000000 0.000000 0.000000 -1.501403 0.646587 2.061676 2.429449 -0.242072 1.072776 -1.466306 -6.510664 -0.934284 0.000000 0.000000 0.000000 4.942082 -0.929761 3.222996 -4.496280 0.477211 -2.232472 4.786557 12.040202 2.417770 0.000000 0.000000 0.000000 5.597142 -1.055698 -1.005205 -2.310954 0.244951 -2.007650 1.821126 1.278666 8.358534 0.000000 0.000000 0.000000 -1.558318 0.791727 3.582374 0.000000 0.000000 0.000000 16.263215 -3.217671 0.999949 -19.792250 2.117583 -0.350263 -1.029727 -1.583553 -5.254000 0.000000 0.000000 0.000000 -24.455548 7.103079 -0.480017 23.030519 -1.431542 5.964251 4.029723 5.620892 -10.011192 
0.003133 0.948334 0.003522 -2.913578 -2.088312 -1.547884 0.000000 0.000000 0.000000 -1.535881 0.669635 2.137776 2.434516 -0.253597 1.306420 -1.278302 -6.283247 -1.132968 0.000000 0.000000 0.000000 4.891057 -0.908695 3.144464 -4.457269 0.509598 -1.849337 4.741428 12.267225 2.204202 0.000000 0.000000 0.000000 5.714341 -1.083209 -0.978161 -2.353717 0.250850 -2.011847 1.799359 1.276039 8.441276 0.000000 0.000000 0.000000 -1.687473 0.866477 3.740529 0.000000 0.000000 0.000000 16.196256 -3.016700 1.110687 -20.034259 2.152987 -0.341201 -0.994998 -1.596782 -5.392676 0.000000 0.000000 0.000000 -24.414685 7.158371 -0.499679 22.944726 -1.453152 6.029871 4.119547 5.662484 -9.967746 
0.003830 0.948290 0.005537 -2.937783 -2.347604 -1.601600 0.000000 0.000000 0.000000 -1.555810 0.707201 2.274516 2.367097 -0.255841 1.481646 -1.100230 -6.067252 -1.322844 0.000000 0.000000 0.000000 4.853553 -0.899823 3.118720 -4.497078 0.549340 -1.499163 4.714163 12.531543 2.003071 0.000000 0.000000 0.000000 5.811306 -1.114121 -0.896647 -2.388144 0.255109 -2.022364 1.773334 1.243187 8.491207 0.000000 0.000000 0.000000 -1.815535 0.941903 3.919266 0.000000 0.000000 0.000000 16.166400 -2.847530 1.199983 -20.347975 2.186312 -0.371204 -1.008648 -1.662063 -5.655807 0.000000 0.000000 0.000000 -24.369188 7.156220 -0.468186 22.917882 -1.456698 6.039773 4.206128 5.708818 -9.941600 
0.004700 0.948251 0.007922 -2.925646 -2.572895 -1.549257 0.000000 0.000000 0.000000 -1.663483 0.705760 2.228459 2.353249 -0.270221 1.822388 -0.876232 -5.865575 -1.597994 0.000000 0.000000 0.000000 4.806978 -0.867068 2.978104 -4.571330 0.599547 -1.104536 4.646211 12.750382 1.756154 0.000000 0.000000 0.000000 5.828486 -1.124288 -0.854063 -2.396117 0.250444 -2.111774 1.758551 1.157407 8.582774 0.000000 0.000000 0.000000 -1.904690 0.996807 4.051057 0.000000 0.000000 0.000000 16.181828 -2.826395 1.191066 -20.637964 2.216228 -0.411128 -1.158088 -1.812731 -5.999389 0.000000 0.000000 0.000000 -24.284991 7.096405 -0.387916 22.897376 -1.456756 6.034884 4.289535 5.793078 -10.023538 
0.005685 0.948033 0.010610 -2.923788 -2.708919 -1.395252 0.000000 0.000000 0.000000 -1.800339 0.635553 1.910421 2.382486 -0.302003 2.469561 -0.574717 -5.628378 -1.987470 0.000000 0.000000 0.000000 4.758508 -0.815486 2.742936 -4.639848 0.651762 -0.689698 4.500166 12.894929 1.408698 0.000000 0.000000 0.000000 5.789964 -1.122387 -0.822878 -2.343073 0.233788 -2.251650 1.778916 1.016895 8.722605 0.000000 0.000000 0.000000 -1.939471 1.021133 4.082745 0.000000 0.000000 0.000000 16.268142 -2.955310 1.091274 -20.948405 2.231526 -0.517995 -1.400951 -2.016041 -6.362570 0.000000 0.000000 0.000000 -24.179503 6.936461 -0.230480 22.849578 -1.452033 6.013671 4.349154 5.996149 -10.460230 
0.006771 0.947776 0.013685 -2.933320 -2.862754 -1.186211 0.000000 0.000000 0.000000 -1.937836 0.543635 1.512374 2.400057 -0.337206 3.217845 -0.236094 -5.335710 -2.416690 0.000000 0.000000 0.000000 4.682998 -0.755548 2.473382 -4.675083 0.701575 -0.253820 4.304363 13.076458 0.952338 0.000000 0.000000 0.000000 5.739507 -1.131994 -0.694234 -2.280112 0.212547 -2.444253 1.818565 0.882782 8.872010 0.000000 0.000000 0.000000 -1.991013 1.055246 4.048851 0.000000 0.000000 0.000000 16.377367 -3.144426 0.951623 -21.208238 2.252334 -0.587109 -1.797574 -2.350506 -6.941821 0.000000 0.000000 0.000000 -24.087304 6.801791 -0.090256 22.761528 -1.485683 6.107264 4.464904 6.448138 -11.452091 
0.007852 0.947510 0.017670 -2.993130 -3.150932 -1.014674 0.000000 0.000000 0.000000 -2.005685 0.464006 1.187740 2.318160 -0.365900 4.081540 0.258747 -4.931256 -3.065319 0.000000 0.000000 0.000000 4.716920 -0.712830 2.248264 -4.820121 0.784844 0.331948 3.934053 13.399160 0.107261 0.000000 0.000000 0.000000 5.721208 -1.152542 -0.531386 -2.269752 0.204997 -2.541003 1.886724 0.779636 9.155070 0.000000 0.000000 0.000000 -2.040289 1.088069 3.691744 0.000000 0.000000 0.000000 16.552664 -3.292118 0.844214 -21.400200 2.292199 -0.579548 -2.583200 -3.072280 -8.264714 0.000000 0.000000 0.000000 -23.933043 6.812153 -0.069029 22.510890 -1.489602 6.119848 4.778177 7.258542 -12.995050 
0.008641 0.947617 0.022952 -3.086866 -3.454694 -0.789356 0.000000 0.000000 0.000000 -2.048179 0.375743 0.839733 2.198698 -0.398299 5.197156 0.784974 -4.770034 -3.899410 0.000000 0.000000 0.000000 5.056698 -0.683308 1.982253 -5.546930 0.981162 1.047098 3.252894 13.895603 -1.379791 0.000000 0.000000 0.000000 5.516551 -1.051038 -0.984052 -1.963566 0.276988 -0.656584 1.915607 0.736408 8.088276 0.000000 0.000000 0.000000 -2.139738 1.155552 5.325874 0.000000 0.000000 0.000000 16.577725 -3.577042 0.609044 -20.805176 2.314438 -0.147192 -5.191504 -5.163724 -10.824145 0.000000 0.000000 0.000000 -23.533348 6.452391 0.208414 21.971406 -1.297376 5.709650 6.072294 8.389764 -13.566236 
0.010267 0.947122 0.028841 -3.117257 -3.614274 -0.373571 0.000000 0.000000 0.000000 -2.351036 0.202384 0.093046 2.299790 -0.476305 6.772732 1.793410 -4.419897 -5.490737 0.000000 0.000000 0.000000 4.948353 -0.586218 1.537558 -5.603339 1.081931 1.851777 2.303924 13.761116 -3.046523 0.000000 0.000000 0.000000 5.263950 -1.030619 -0.778313 -1.785464 0.238646 -0.829763 2.017374 0.678342 8.371988 0.000000 0.000000 0.000000 -2.026022 1.092382 5.013743 0.000000 0.000000 0.000000 16.960866 -3.349182 0.809018 -20.605848 2.377569 0.128113 -6.818945 -7.320845 -14.880132 0.000000 0.000000 0.000000 -23.429847 6.235824 0.400780 21.747260 -1.224017 5.480101 6.407247 9.905674 -16.580903 
0.012737 0.946466 0.036247 -3.191339 -3.629273 0.221229 0.000000 0.000000 0.000000 -2.612027 -0.018923 -0.812664 2.319377 -0.544585 8.386816 2.858702 -3.979088 -7.163436 0.000000 0.000000 0.000000 4.767504 -0.486371 1.091121 -5.522380 1.144623 2.527656 1.343621 12.977493 -4.456386 0.000000 0.000000 0.000000 5.067208 -1.020879 -0.582215 -1.569072 0.193506 -1.031460 2.116593 0.661842 8.497278 0.000000 0.000000 0.000000 -1.880560 1.007789 4.738853 0.000000 0.000000 0.000000 17.317232 -3.270520 0.914811 -20.428193 2.460750 0.498824 -8.117072 -9.310791 -18.443841 0.000000 0.000000 0.000000 -23.424960 6.132380 0.493990 21.660849 -1.138427 5.212149 6.615246 11.297135 -19.370993 
0.016283 0.945380 0.046303 -3.353702 -3.574390 0.968715 0.000000 0.000000 0.000000 -2.737060 -0.170997 -1.422747 2.226931 -0.568562 9.369123 3.664275 -3.675281 -8.460305 0.000000 0.000000 0.000000 4.642470 -0.460101 0.972520 -5.483155 1.145092 2.592361 0.603111 12.502260 -5.628225 0.000000 0.000000 0.000000 5.020363 -1.024657 -0.529963 -1.350562 0.156237 -1.101864 2.218226 0.737869 8.450490 0.000000 0.000000 0.000000 -1.797507 0.957249 4.539690 0.000000 0.000000 0.000000 17.614116 -3.322138 0.933090 -20.247978 2.530809 0.853860 -9.212649 -10.825378 -20.641074 0.000000 0.000000 0.000000 -23.539640 6.286320 0.375526 21.683275 -1.122151 5.163486 6.674145 12.544438 -21.980444 
0.021312 0.943721 0.059447 -3.589704 -3.378994 2.028107 0.000000 0.000000 0.000000 -2.817274 -0.275142 -1.850600 2.162690 -0.571479 9.713031 4.325324 -3.713143 -9.655974 0.000000 0.000000 0.000000 4.554198 -0.446802 0.893696 -5.486414 1.110499 2.280928 0.050742 12.278482 -6.581523 0.000000 0.000000 0.000000 5.130866 -1.031446 -0.729943 -1.178057 0.124420 -1.205841 2.325188 0.933206 8.307238 0.000000 0.000000 0.000000 -1.645057 0.863655 4.286650 0.000000 0.000000 0.000000 17.759682 -3.268843 1.024900 -20.102055 2.593449 1.189536 -10.145690 -11.769522 -21.420952 0.000000 0.000000 0.000000 -23.685828 6.454945 0.217309 21.663166 -1.195235 5.397589 6.670610 13.626466 -24.270418 
